<svg xmlns="http://www.w3.org/2000/svg" viewBox="0 0 100 100" width="100%" height="100%">
  <defs>
    <linearGradient id="bgGrad" x1="0%" y1="0%" x2="100%" y2="100%">
      <stop offset="0%" stop-color="#4776E6"/>
      <stop offset="100%" stop-color="#8E54E9"/>
    </linearGradient>

    <linearGradient id="starGrad" x1="0%" y1="0%" x2="100%" y2="100%">
      <stop offset="0%" stop-color="#FF512F"/>
      <stop offset="100%" stop-color="#F09819"/>
    </linearGradient>

    <filter id="ticketShadow" x="-10%" y="-10%" width="130%" height="130%">
      <feDropShadow dx="0" dy="4" stdDeviation="4" flood-color="#000000" flood-opacity="0.25" />
    </filter>
  </defs>

  <rect x="4" y="4" width="92" height="92" rx="22" fill="url(#bgGrad)" />

  <g transform="rotate(-8 50 50)">
    
    <path 
      d="M 22 30 
         H 78 
         V 44 
         A 6 6 0 0 0 78 56 
         V 70 
         H 22 
         V 56 
         A 6 6 0 0 0 22 44 
         Z" 
      fill="#ffffff" 
      filter="url(#ticketShadow)" 
    />

    <line x1="64" y1="34" x2="64" y2="66" stroke="#8E54E9" stroke-width="2.5" stroke-dasharray="5,4" stroke-linecap="round" />

    <rect x="69" y="38" width="2" height="24" fill="#8E54E9" rx="1"/>
    <rect x="73" y="38" width="1" height="24" fill="#8E54E9" rx="0.5"/>
    <rect x="76" y="38" width="2" height="24" fill="#8E54E9" rx="1"/>

    <polygon 
      points="42,38 45,46 54,46 48,51 50,60 42,55 34,60 36,51 30,46 39,46" 
      fill="url(#starGrad)" 
    />

    <circle cx="28" cy="36" r="2" fill="#FF512F" />
    <circle cx="56" cy="37" r="1.5" fill="#4776E6" />
    <circle cx="29" cy="62" r="1.5" fill="#8E54E9" />
    <circle cx="55" cy="61" r="2" fill="#F09819" />

  </g>
</svg>